# xmcd
#
# Track frame offsets: 
#        182
#        36500
#        53300
#        70187
#        86355
#        101515
#        112925
#        143725
#        156120
#        172070
#        196347
#
# Disc length: 2817 seconds
#
# Revision: 6
# Processed by: cddbd v1.5.2PL0 Copyright (c) Steve Scherf et al.
# Submitted via: ExactAudioCopy v0.99pb4
#
DISCID=890aff0b
DTITLE=Various Artist - Blues Anthology, Volume 1 (2 of 2)
DYEAR=1900
DGENRE=Blues
TTITLE0=Albert Collins - How Blue Can You Get
TTITLE1=Buddy Guy and Junior Wells - Messin' With the Kid
TTITLE2=Charlie Musselwhite - Trouble No More
TTITLE3=Buddy Reed and The Th'rip It Ups - Rialto Rock
TTITLE4=King Biscuit Boy with The Ronny Hawkins Band - Neighbor, Neigh
TTITLE4=bor
TTITLE5=Ike Turner - Ho Ho
TTITLE6=Luther Allison - You Upset Me Baby
TTITLE7=The Aces - Take a Little Walk With Me
TTITLE8=Clarence Edwards - Rocky Mountain
TTITLE9=Troyce Key and J.J. Malone - New Car
TTITLE10=Isaac Scott - Help
EXTD=ID3G:   0
EXTT0=
EXTT1=
EXTT2=
EXTT3=
EXTT4=
EXTT5=
EXTT6=
EXTT7=
EXTT8=
EXTT9=
EXTT10=
PLAYORDER=
